<svg width="18" height="22" viewBox="0 0 18 22" fill="none" xmlns="http://www.w3.org/2000/svg">
<path d="M14.6481 15.5681C13.7115 16.5047 11.7528 18.4634 10.405 19.8112C9.62396 20.5922 8.35889 20.5926 7.57784 19.8116C6.25355 18.4873 4.3328 16.5666 3.33436 15.5681C0.210162 12.4439 0.210162 7.3786 3.33436 4.2544C6.45855 1.13021 11.5239 1.13021 14.6481 4.2544C17.7723 7.3786 17.7723 12.4439 14.6481 15.5681Z" stroke="#F25025" stroke-width="2" stroke-linecap="round" stroke-linejoin="round"/>
<path d="M11.9912 9.91125C11.9912 11.5681 10.6481 12.9113 8.99121 12.9113C7.33436 12.9113 5.99121 11.5681 5.99121 9.91125C5.99121 8.2544 7.33436 6.91125 8.99121 6.91125C10.6481 6.91125 11.9912 8.2544 11.9912 9.91125Z" stroke="#F25025" stroke-width="2" stroke-linecap="round" stroke-linejoin="round"/>
</svg>
